HIERARCHY
ROOT joint_Root
{
	OFFSET 0.0 0.0 0.0
	CHANNELS 6 Xposition Yposition Zposition Zrotation Xrotation Yrotation 
	JOINT Hips
	{
		OFFSET 4.5925 91.4895 -427.239
		CHANNELS 6 Xposition Yposition Zposition Zrotation Xrotation Yrotation 
		JOINT Spine
		{
			OFFSET 15.7357 0.0 0.0
			CHANNELS 6 Xposition Yposition Zposition Zrotation Xrotation Yrotation 
			JOINT Chest
			{
				OFFSET 8.98455 -0.406207 0.0
				CHANNELS 6 Xposition Yposition Zposition Zrotation Xrotation Yrotation 
				JOINT Neck
				{
					OFFSET 16.3773 0.0 0.0
					CHANNELS 6 Xposition Yposition Zposition Zrotation Xrotation Yrotation 
					JOINT Head
					{
						OFFSET 6.45672 0.0 0.0
						CHANNELS 6 Xposition Yposition Zposition Zrotation Xrotation Yrotation 
						End Site
						{
							OFFSET 0.0 0.0 0.0
						}
					}
				}
				JOINT Shoulder_L
				{
					OFFSET 12.9942 -0.242716 4.98039
					CHANNELS 6 Xposition Yposition Zposition Zrotation Xrotation Yrotation 
					JOINT UpperArm_L
					{
						OFFSET 5.34809 0.0 0.0
						CHANNELS 6 Xposition Yposition Zposition Zrotation Xrotation Yrotation 
						JOINT LowerArm_L
						{
							OFFSET 24.3286 1.87007e-05 0.0
							CHANNELS 6 Xposition Yposition Zposition Zrotation Xrotation Yrotation 
							JOINT Hand_L
							{
								OFFSET 22.2916 0.0 0.0
								CHANNELS 6 Xposition Yposition Zposition Zrotation Xrotation Yrotation 
								End Site
								{
									OFFSET 0.0 0.0 0.0
								}
							}
						}
					}
				}
				JOINT Shoulder_R
				{
					OFFSET 12.9945 -0.242716 -4.98039
					CHANNELS 6 Xposition Yposition Zposition Zrotation Xrotation Yrotation 
					JOINT UpperArm_R
					{
						OFFSET -5.34813 0.0 0.0
						CHANNELS 6 Xposition Yposition Zposition Zrotation Xrotation Yrotation 
						JOINT LowerArm_R
						{
							OFFSET -24.3289 0.000322201 0.0
							CHANNELS 6 Xposition Yposition Zposition Zrotation Xrotation Yrotation 
							JOINT Hand_R
							{
								OFFSET -22.2915 -0.000108084 0.0
								CHANNELS 6 Xposition Yposition Zposition Zrotation Xrotation Yrotation 
								End Site
								{
									OFFSET 0.0 0.0 0.0
								}
							}
						}
					}
				}
			}
		}
		JOINT UpperLeg_L
		{
			OFFSET -2.19248 -6.46944 0.0
			CHANNELS 6 Xposition Yposition Zposition Zrotation Xrotation Yrotation 
			JOINT LowerLeg_L
			{
				OFFSET 39.0811 0.0 -1.23785e-05
				CHANNELS 6 Xposition Yposition Zposition Zrotation Xrotation Yrotation 
				JOINT Foot_L
				{
					OFFSET 40.9854 0.0 -1.26872e-05
					CHANNELS 6 Xposition Yposition Zposition Zrotation Xrotation Yrotation 
					JOINT Toes_L
					{
						OFFSET 11.7543 0.0 0.0
						CHANNELS 6 Xposition Yposition Zposition Zrotation Xrotation Yrotation 
						End Site
						{
							OFFSET 0.0 0.0 0.0
						}
					}
				}
			}
		}
		JOINT UpperLeg_R
		{
			OFFSET -2.19251 6.46944 0.0
			CHANNELS 6 Xposition Yposition Zposition Zrotation Xrotation Yrotation 
			JOINT LowerLeg_R
			{
				OFFSET -39.0811 -0.00228153 -0.0401928
				CHANNELS 6 Xposition Yposition Zposition Zrotation Xrotation Yrotation 
				JOINT Foot_R
				{
					OFFSET -40.9854 0.0 0.0
					CHANNELS 6 Xposition Yposition Zposition Zrotation Xrotation Yrotation 
					JOINT Toes_R
					{
						OFFSET -11.7543 0.0 0.0
						CHANNELS 6 Xposition Yposition Zposition Zrotation Xrotation Yrotation 
						End Site
						{
							OFFSET 0.0 0.0 0.0
						}
					}
				}
			}
		}
	}
}
MOTION
Frames:	6
Frame Time:	0.0333333
0.000000 0.000000 0.000000 0.000000 0.000000 -0.000000 107.235000 86.846100 175.335000 -79.716100 46.282000 170.021000 15.735700 0.000005 -0.000001 64.444400 84.048500 -62.667700 8.984550 -0.406207 -0.000000 3.066690 -5.202400 3.690940 16.377300 -0.000001 -0.000001 -3.204000 1.356810 -0.889444 6.456720 -0.000001 -0.000000 -7.666250 7.542730 -5.965730 12.994200 -0.242716 4.980390 -90.659100 2.401250 -74.646200 5.348090 -0.000007 -0.000001 -43.953100 45.662200 -52.685400 24.328600 0.000019 0.000005 16.658200 9.662640 -60.709600 22.291600 -0.000001 0.000005 15.847600 5.344840 -1.223080 12.994500 -0.242716 -4.980390 88.052700 7.461100 -75.328000 -5.348130 -0.000001 -0.000004 -71.746000 14.406100 7.554930 -24.328900 0.000322 -0.000009 0.223351 11.891500 -1.089020 -22.291500 -0.000108 -0.000004 11.593000 5.175850 3.316970 -2.192480 -6.469440 -0.000000 -177.694000 8.140070 3.129550 39.081100 -0.000007 -0.000012 -0.030954 0.033281 42.927700 40.985400 -0.000006 -0.000013 17.129500 21.447200 -65.390200 11.754300 -0.000000 0.000003 -0.124132 -0.500882 -37.615900 -2.192510 6.469440 -0.000001 -177.111000 3.967230 150.388000 -39.081100 -0.002282 -0.040193 -0.140123 0.146587 44.368200 -40.985400 0.000008 0.000006 0.766311 7.392040 -67.919100 -11.754300 -0.000006 -0.000006 -0.002026 -0.029040 -17.754000
0.000000 0.000000 0.000000 0.000000 0.000000 -0.000000 111.068000 86.115500 172.808000 -80.755800 42.811900 173.108000 15.735700 0.000005 -0.000001 64.690700 83.329300 -62.700900 8.984550 -0.406207 -0.000000 4.415990 -5.752260 4.199800 16.377300 -0.000001 -0.000001 -2.778200 1.394160 -0.630154 6.456720 -0.000001 -0.000000 -7.338520 8.145180 -6.086440 12.994200 -0.242716 4.980390 -90.702100 2.619700 -74.992500 5.348090 -0.000007 -0.000001 -45.204900 47.154100 -51.551400 24.328600 0.000019 0.000005 17.069700 10.241100 -59.929000 22.291600 -0.000001 0.000005 15.900600 5.362380 -1.752260 12.994500 -0.242716 -4.980390 87.813500 8.118480 -74.871700 -5.348130 -0.000001 -0.000004 -70.874500 14.300100 6.292280 -24.328900 0.000322 -0.000009 0.404142 12.479500 -1.874840 -22.291500 -0.000108 -0.000004 11.122500 5.170830 3.439230 -2.192480 -6.469440 -0.000000 -175.990000 9.079580 0.866166 39.081100 -0.000007 -0.000012 -0.068421 0.054477 51.475200 40.985400 -0.000006 -0.000013 -0.047121 23.504300 -54.070600 11.754300 -0.000000 0.000003 -0.087869 -0.413417 -33.776500 -2.192510 6.469440 -0.000001 -176.929000 7.970730 154.318000 -39.081100 -0.002282 -0.040193 0.038381 -0.031128 48.455100 -40.985400 0.000008 0.000006 4.193310 6.705040 -74.158600 -11.754300 -0.000006 -0.000006 -0.231071 -0.279081 -16.396400
0.000000 0.000000 0.000000 0.000000 0.000000 -0.000000 114.269000 85.689700 170.433000 -81.840900 39.371500 175.198000 15.735700 0.000005 -0.000001 65.154100 82.958500 -63.015100 8.984550 -0.406207 -0.000000 5.150450 -5.953950 4.544040 16.377300 -0.000001 -0.000001 -2.610630 1.118290 -0.297791 6.456720 -0.000001 -0.000000 -7.045310 7.980560 -5.341460 12.994200 -0.242716 4.980390 -90.712200 2.744870 -75.449600 5.348090 -0.000007 -0.000001 -45.920000 49.306900 -51.229300 24.328600 0.000019 0.000005 16.017900 11.371700 -55.516900 22.291600 -0.000001 0.000005 16.191800 5.375290 -2.151140 12.994500 -0.242716 -4.980390 87.555600 8.893710 -74.564200 -5.348130 -0.000001 -0.000004 -69.516900 15.541600 4.726960 -24.328900 0.000322 -0.000009 0.808462 9.926520 -4.691330 -22.291500 -0.000108 -0.000004 10.979200 5.221910 2.165330 -2.192480 -6.469440 -0.000000 -174.489000 10.212900 -3.941350 39.081100 -0.000007 -0.000012 0.009000 -0.005219 59.867200 40.985400 -0.000006 -0.000013 -19.965200 16.730500 -40.388900 11.754300 -0.000000 0.000003 -0.010385 -0.106504 -20.916600 -2.192510 6.469440 -0.000001 -177.531000 12.021300 158.058000 -39.081100 -0.002282 -0.040193 0.079321 -0.063490 50.152100 -40.985400 0.000008 0.000006 5.182200 6.578120 -78.041900 -11.754300 -0.000006 -0.000006 -0.904622 -1.130750 -16.280900
0.000000 0.000000 0.000000 0.000000 0.000000 -0.000000 116.926000 85.991600 167.996000 -82.324400 38.067600 175.992000 15.735700 0.000005 -0.000001 69.116900 83.176000 -66.904300 8.984550 -0.406207 -0.000000 5.099040 -4.906510 4.640970 16.377300 -0.000001 -0.000001 -2.364900 1.089700 0.143800 6.456720 -0.000001 -0.000000 -6.529380 7.609090 -3.963350 12.994200 -0.242716 4.980390 -90.722100 2.809380 -75.578500 5.348090 -0.000007 -0.000001 -46.017000 52.145100 -51.273700 24.328600 0.000019 0.000005 13.836700 12.901800 -47.807300 22.291600 -0.000001 0.000005 16.030800 5.365880 -1.857970 12.994500 -0.242716 -4.980390 87.419200 9.586690 -74.855600 -5.348130 -0.000001 -0.000004 -67.639600 17.982300 2.726460 -24.328900 0.000322 -0.000009 0.843636 5.909700 -8.157340 -22.291500 -0.000108 -0.000004 12.342100 5.287370 0.432450 -2.192480 -6.469440 -0.000000 -174.531000 6.857640 -7.516200 39.081100 -0.000007 -0.000012 0.028569 -0.012289 66.714600 40.985400 -0.000006 -0.000013 -12.396600 11.729300 -47.265600 11.754300 -0.000000 0.000003 -0.008022 -0.088223 -20.169300 -2.192510 6.469440 -0.000001 -178.117000 13.297400 162.085000 -39.081100 -0.002282 -0.040193 0.067962 -0.056722 48.764100 -40.985400 0.000008 0.000006 5.200670 6.398190 -79.330400 -11.754300 -0.000006 -0.000006 -1.476700 -1.866780 -16.689400
0.000000 0.000000 0.000000 0.000000 0.000000 -0.000000 119.073000 86.826400 165.487000 -83.240700 37.944800 176.900000 15.735700 0.000005 -0.000001 73.683200 83.341400 -71.739600 8.984550 -0.406207 -0.000000 5.090790 -3.779120 4.052010 16.377300 -0.000001 -0.000001 -2.394850 1.509830 0.818564 6.456720 -0.000001 -0.000000 -6.068380 7.469100 -2.332050 12.994200 -0.242716 4.980390 -90.694400 2.682420 -75.479800 5.348090 -0.000007 -0.000001 -47.819300 54.074900 -48.933800 24.328600 0.000019 0.000005 12.607600 15.894500 -39.243800 22.291600 -0.000001 0.000005 14.065700 5.341510 -1.119910 12.994500 -0.242716 -4.980390 87.484300 9.922440 -75.695800 -5.348130 -0.000001 -0.000004 -65.640800 20.197600 -0.716553 -24.328900 0.000322 -0.000009 0.857494 4.296350 -11.312800 -22.291500 -0.000108 -0.000004 15.199400 5.341980 -1.126170 -2.192480 -6.469440 -0.000000 -175.928000 2.285840 -10.806300 39.081100 -0.000007 -0.000012 0.032280 -0.011685 70.091900 40.985400 -0.000006 -0.000013 -4.533330 4.456220 -53.798300 11.754300 -0.000000 0.000003 -0.006727 -0.077309 -19.723800 -2.192510 6.469440 -0.000001 -179.582000 14.509100 166.294000 -39.081100 -0.002282 -0.040193 0.045108 -0.040670 45.816300 -40.985400 0.000008 0.000006 5.247990 7.689210 -78.220400 -11.754300 -0.000006 -0.000006 -2.272850 -2.828270 -18.091100
0.000000 0.000000 0.000000 0.000000 0.000000 -0.000000 120.913000 87.955800 163.067000 -83.932100 38.030800 177.357000 15.735700 0.000005 -0.000001 77.028900 83.426000 -75.378500 8.984550 -0.406207 -0.000000 5.097090 -2.983500 3.430640 16.377300 -0.000001 -0.000001 -2.554460 2.082210 1.339420 6.456720 -0.000001 -0.000000 -5.923110 7.494570 -0.872144 12.994200 -0.242716 4.980390 -90.664200 2.565480 -75.479500 5.348090 -0.000007 -0.000001 -52.023700 53.973400 -43.105400 24.328600 0.000019 0.000005 12.363300 20.784000 -31.710600 22.291600 -0.000001 0.000005 10.198600 5.307150 -0.118719 12.994500 -0.242716 -4.980390 87.776700 9.533500 -76.808400 -5.348130 -0.000001 -0.000004 -63.955900 21.081600 -5.310610 -24.328900 0.000322 -0.000009 1.099360 4.293870 -14.387000 -22.291500 -0.000108 -0.000004 17.768800 5.363880 -1.794200 -2.192480 -6.469440 -0.000000 -177.567000 -1.868880 -14.128500 39.081100 -0.000007 -0.000012 0.029781 -0.010818 70.025900 40.985400 -0.000006 -0.000013 0.547881 -0.859973 -57.590800 11.754300 -0.000000 0.000003 -0.006504 -0.075359 -19.644200 -2.192510 6.469440 -0.000001 178.943000 15.761500 169.698000 -39.081100 -0.002282 -0.040193 0.020548 -0.018685 42.757900 -40.985400 0.000008 0.000006 5.299060 9.770160 -74.366000 -11.754300 -0.000006 -0.000006 -2.644320 -3.087580 -21.494900
